<?xml version="1.0" encoding="UTF-8" standalone="no"?>
<!-- Created with Inkscape (http://www.inkscape.org/) -->

<svg
   width="180.59474mm"
   height="51.701527mm"
   viewBox="0 0 180.59474 51.701527"
   version="1.1"
   id="svg68641"
   inkscape:version="1.1.2 (0a00cf5339, 2022-02-04)"
   sodipodi:docname="fdens_scheme.svg"
   xmlns:inkscape="http://www.inkscape.org/namespaces/inkscape"
   xmlns:sodipodi="http://sodipodi.sourceforge.net/DTD/sodipodi-0.dtd"
   xmlns="http://www.w3.org/2000/svg"
   xmlns:svg="http://www.w3.org/2000/svg">
  <sodipodi:namedview
     id="namedview68643"
     pagecolor="#ffffff"
     bordercolor="#666666"
     borderopacity="1.0"
     inkscape:pageshadow="2"
     inkscape:pageopacity="0.0"
     inkscape:pagecheckerboard="0"
     inkscape:document-units="mm"
     showgrid="false"
     inkscape:zoom="0.77771465"
     inkscape:cx="293.16665"
     inkscape:cy="468.6809"
     inkscape:window-width="3440"
     inkscape:window-height="1330"
     inkscape:window-x="0"
     inkscape:window-y="28"
     inkscape:window-maximized="1"
     inkscape:current-layer="layer1" />
  <defs
     id="defs68638">
    <marker
       style="overflow:visible"
       id="Arrow2Mstart"
       refX="0"
       refY="0"
       orient="auto"
       inkscape:stockid="Arrow2Mstart"
       inkscape:isstock="true">
      <path
         transform="scale(0.6)"
         d="M 8.7185878,4.0337352 -2.2072895,0.01601326 8.7185884,-4.0017078 c -1.7454984,2.3720609 -1.7354408,5.6174519 -6e-7,8.035443 z"
         style="fill:context-stroke;fill-rule:evenodd;stroke:context-stroke;stroke-width:0.625;stroke-linejoin:round"
         id="path4208" />
    </marker>
    <marker
       style="overflow:visible"
       id="Arrow2Mend"
       refX="0"
       refY="0"
       orient="auto"
       inkscape:stockid="Arrow2Mend"
       inkscape:isstock="true">
      <path
         transform="scale(-0.6)"
         d="M 8.7185878,4.0337352 -2.2072895,0.01601326 8.7185884,-4.0017078 c -1.7454984,2.3720609 -1.7354408,5.6174519 -6e-7,8.035443 z"
         style="fill:context-stroke;fill-rule:evenodd;stroke:context-stroke;stroke-width:0.625;stroke-linejoin:round"
         id="path4211" />
    </marker>
    <marker
       style="overflow:visible"
       id="marker68553"
       refX="0"
       refY="0"
       orient="auto"
       inkscape:stockid="Arrow2Mstart"
       inkscape:isstock="true">
      <path
         transform="scale(0.6)"
         d="M 8.7185878,4.0337352 -2.2072895,0.01601326 8.7185884,-4.0017078 c -1.7454984,2.3720609 -1.7354408,5.6174519 -6e-7,8.035443 z"
         style="fill:context-stroke;fill-rule:evenodd;stroke:context-stroke;stroke-width:0.625;stroke-linejoin:round"
         id="path68551" />
    </marker>
    <marker
       style="overflow:visible"
       id="marker68557"
       refX="0"
       refY="0"
       orient="auto"
       inkscape:stockid="Arrow2Mend"
       inkscape:isstock="true">
      <path
         transform="scale(-0.6)"
         d="M 8.7185878,4.0337352 -2.2072895,0.01601326 8.7185884,-4.0017078 c -1.7454984,2.3720609 -1.7354408,5.6174519 -6e-7,8.035443 z"
         style="fill:context-stroke;fill-rule:evenodd;stroke:context-stroke;stroke-width:0.625;stroke-linejoin:round"
         id="path68555" />
    </marker>
    <marker
       style="overflow:visible"
       id="marker68561"
       refX="0"
       refY="0"
       orient="auto"
       inkscape:stockid="Arrow2Mstart"
       inkscape:isstock="true">
      <path
         transform="scale(0.6)"
         d="M 8.7185878,4.0337352 -2.2072895,0.01601326 8.7185884,-4.0017078 c -1.7454984,2.3720609 -1.7354408,5.6174519 -6e-7,8.035443 z"
         style="fill:context-stroke;fill-rule:evenodd;stroke:context-stroke;stroke-width:0.625;stroke-linejoin:round"
         id="path68559" />
    </marker>
    <marker
       style="overflow:visible"
       id="marker68565"
       refX="0"
       refY="0"
       orient="auto"
       inkscape:stockid="Arrow2Mend"
       inkscape:isstock="true">
      <path
         transform="scale(-0.6)"
         d="M 8.7185878,4.0337352 -2.2072895,0.01601326 8.7185884,-4.0017078 c -1.7454984,2.3720609 -1.7354408,5.6174519 -6e-7,8.035443 z"
         style="fill:context-stroke;fill-rule:evenodd;stroke:context-stroke;stroke-width:0.625;stroke-linejoin:round"
         id="path68563" />
    </marker>
    <marker
       style="overflow:visible"
       id="marker68569"
       refX="0"
       refY="0"
       orient="auto"
       inkscape:stockid="Arrow2Mstart"
       inkscape:isstock="true">
      <path
         transform="scale(0.6)"
         d="M 8.7185878,4.0337352 -2.2072895,0.01601326 8.7185884,-4.0017078 c -1.7454984,2.3720609 -1.7354408,5.6174519 -6e-7,8.035443 z"
         style="fill:context-stroke;fill-rule:evenodd;stroke:context-stroke;stroke-width:0.625;stroke-linejoin:round"
         id="path68567" />
    </marker>
    <marker
       style="overflow:visible"
       id="marker68573"
       refX="0"
       refY="0"
       orient="auto"
       inkscape:stockid="Arrow2Mend"
       inkscape:isstock="true">
      <path
         transform="scale(-0.6)"
         d="M 8.7185878,4.0337352 -2.2072895,0.01601326 8.7185884,-4.0017078 c -1.7454984,2.3720609 -1.7354408,5.6174519 -6e-7,8.035443 z"
         style="fill:context-stroke;fill-rule:evenodd;stroke:context-stroke;stroke-width:0.625;stroke-linejoin:round"
         id="path68571" />
    </marker>
    <marker
       style="overflow:visible"
       id="marker68577"
       refX="0"
       refY="0"
       orient="auto"
       inkscape:stockid="Arrow2Mstart"
       inkscape:isstock="true">
      <path
         transform="scale(0.6)"
         d="M 8.7185878,4.0337352 -2.2072895,0.01601326 8.7185884,-4.0017078 c -1.7454984,2.3720609 -1.7354408,5.6174519 -6e-7,8.035443 z"
         style="fill:context-stroke;fill-rule:evenodd;stroke:context-stroke;stroke-width:0.625;stroke-linejoin:round"
         id="path68575" />
    </marker>
    <marker
       style="overflow:visible"
       id="marker68581"
       refX="0"
       refY="0"
       orient="auto"
       inkscape:stockid="Arrow2Mend"
       inkscape:isstock="true">
      <path
         transform="scale(-0.6)"
         d="M 8.7185878,4.0337352 -2.2072895,0.01601326 8.7185884,-4.0017078 c -1.7454984,2.3720609 -1.7354408,5.6174519 -6e-7,8.035443 z"
         style="fill:context-stroke;fill-rule:evenodd;stroke:context-stroke;stroke-width:0.625;stroke-linejoin:round"
         id="path68579" />
    </marker>
  </defs>
  <g
     inkscape:label="Layer 1"
     inkscape:groupmode="layer"
     id="layer1"
     transform="translate(-24.692323,-24.499753)">
    <path
       style="fill:none;stroke:#000000;stroke-width:0.339977;stroke-linecap:butt;stroke-linejoin:miter;stroke-miterlimit:4;stroke-dasharray:none;stroke-opacity:1;marker-start:url(#Arrow2Mstart);marker-end:url(#Arrow2Mend)"
       d="M 41.188807,27.743003 V 69.61086 h 68.676153"
       id="path913"
       inkscape:export-filename="/home/cotton/Documents/ConfirmationThesis/figures/fdens_scheme.png"
       inkscape:export-xdpi="1036.5699"
       inkscape:export-ydpi="1036.5699" />
    <g
       id="g1017"
       inkscape:label="conv_F"
       transform="matrix(0.18035563,0,0,0.18035563,39.95056,28.813684)"
       style="stroke:#002147;stroke-width:5.5446;stroke-miterlimit:3.85;stroke-dasharray:none;stroke-opacity:1"
       inkscape:export-filename="/home/cotton/Documents/ConfirmationThesis/figures/fdens_scheme.png"
       inkscape:export-xdpi="1036.5699"
       inkscape:export-ydpi="1036.5699">
      <path
         d="m 7.1858212,90.799968 0.211,0.946 0.211,0.937 0.425,1.867 0.844,3.668 1.6909998,7.117002 3.383,13.352 0.114,0.434 0.117,0.429 0.226,0.86 0.461,1.699 0.914,3.34 1.836,6.437 3.664,11.934 0.11,0.328 0.105,0.332 0.215,0.652 0.426,1.297 0.859,2.547 1.711,4.902 3.422,9.063 0.105,0.266 0.106,0.261 0.211,0.52 0.418,1.031 0.84,2.02 1.679,3.875 0.106,0.234 0.101,0.234 0.211,0.465 0.422,0.922 0.836,1.805 1.68,3.449 0.113,0.227 0.113,0.222 0.231,0.449 0.453,0.887 0.91,1.727 1.82,3.277 0.114,0.195 0.113,0.2 0.231,0.39 0.453,0.77 0.91,1.496 1.82,2.836 0.109,0.156 0.106,0.16 0.211,0.313 0.426,0.621 0.847,1.203 1.7,2.273 0.109,0.137 0.105,0.137 0.211,0.265 0.426,0.532 0.848,1.031 1.699,1.93 0.117,0.125 0.113,0.125 0.231,0.246 0.461,0.48 0.922,0.934 1.84,1.722 0.117,0.102 0.113,0.102 0.23,0.199 0.461,0.39 0.918,0.75 1.844,1.375 0.453,0.313 0.45,0.301 0.906,0.574 0.113,0.066 0.113,0.071 0.223,0.132 0.453,0.266 0.902,0.496 0.454,0.234 0.453,0.227 0.902,0.422 0.227,0.101 0.226,0.098 0.453,0.192 0.903,0.351 0.422,0.156 0.421,0.145 0.844,0.269 0.422,0.125 0.422,0.118 0.84,0.211 0.105,0.023 0.106,0.027 0.211,0.047 0.421,0.09 0.211,0.039 0.211,0.043 0.422,0.074 0.106,0.02 0.105,0.015 0.211,0.036 0.633,0.093 0.211,0.028 0.422,0.047 0.113,0.015 0.113,0.012 0.231,0.019 0.226,0.024 0.231,0.019 0.226,0.016 0.118,0.008 0.226,0.015 0.113,0.004 0.231,0.012 0.113,0.008 0.113,0.004 0.118,0.004 0.339,0.011 h 0.118 l 0.113,0.004 h 0.23 l 0.114,0.004 h 0.343 l 0.114,-0.004 h 0.226 l 0.117,-0.004 0.114,-0.003 h 0.113 l 0.113,-0.004 0.117,-0.004 0.227,-0.008 0.113,-0.008 0.117,-0.004 0.114,-0.008 0.113,-0.004 0.113,-0.007 0.118,-0.008 0.339,-0.024 0.118,-0.007 0.226,-0.02 0.113,-0.012 0.118,-0.007 0.339,-0.036 0.118,-0.011 0.226,-0.024 0.457,-0.054 0.11,-0.016 0.105,-0.012 0.215,-0.031 0.426,-0.059 0.105,-0.019 0.106,-0.016 0.214,-0.035 0.426,-0.07 0.11,-0.02 0.105,-0.019 0.215,-0.039 0.426,-0.082 0.851,-0.18 0.11,-0.024 0.105,-0.023 0.215,-0.051 0.426,-0.101 0.851,-0.215 1.707,-0.492 0.211,-0.063 0.207,-0.066 0.422,-0.137 0.836,-0.281 1.672,-0.61 0.105,-0.039 0.106,-0.043 0.207,-0.082 0.418,-0.164 0.84,-0.343 1.672,-0.727 0.453,-0.203 0.453,-0.211 0.91,-0.43 1.816,-0.906 3.629,-1.965 6.777999,-4.133 7.347,-4.965 7.211,-5.148 6.727,-4.879 7.293,-5.203 6.808,-4.641 7.379,-4.668 7.243,-4.101 0.21,-0.11 0.211,-0.113 0.422,-0.219 0.848,-0.437 1.687,-0.848 3.379,-1.593 0.114,-0.055 0.117,-0.051 0.226,-0.102 0.457,-0.203 0.918,-0.402 1.832,-0.766 0.227,-0.093 0.23,-0.094 0.457,-0.184 0.918,-0.355 1.829,-0.688 0.109,-0.039 0.105,-0.039 0.215,-0.074 0.426,-0.152 0.856,-0.297 1.71,-0.563 0.106,-0.035 0.109,-0.031 0.211,-0.07 0.43,-0.129 0.855,-0.262 1.711,-0.484 0.102,-0.032 0.316,-0.082 0.418,-0.113 0.84,-0.215 1.676,-0.406 0.211,-0.047 0.207,-0.047 0.422,-0.094 0.836,-0.175 1.675,-0.332 0.114,-0.02 0.117,-0.023 0.226,-0.039 0.454,-0.083 0.91,-0.152 0.113,-0.019 0.113,-0.016 0.227,-0.035 0.457,-0.07 0.91,-0.133 0.227,-0.032 0.226,-0.027 0.453,-0.062 0.91,-0.11 0.227,-0.023 0.231,-0.028 0.453,-0.046 0.91,-0.09 0.105,-0.008 0.106,-0.012 0.211,-0.015 0.425,-0.036 0.106,-0.011 0.105,-0.008 0.215,-0.016 0.528,-0.039 0.109,-0.008 0.211,-0.011 0.422,-0.028 0.109,-0.007 0.106,-0.004 0.211,-0.012 0.425,-0.024 0.211,-0.007 0.211,-0.012 0.11,-0.004 0.527,-0.019 0.215,-0.008 0.422,-0.016 h 0.105 l 0.109,-0.004 0.211,-0.004 0.211,-0.008 0.211,-0.003 h 0.11 l 0.105,-0.004 h 0.211 l 0.106,-0.004 h 0.32 l 0.113,-0.004 h 1.149 l 0.117,0.004 h 0.23 l 0.113,0.004 h 0.231 l 0.117,0.004 h 0.113 l 0.114,0.003 h 0.117 l 0.113,0.004 0.231,0.004 0.117,0.004 0.113,0.004 0.231,0.008 0.113,0.004 h 0.117 l 0.231,0.008 0.113,0.004 0.113,0.007 0.231,0.008 0.461,0.02 0.113,0.004 0.117,0.007 0.23,0.012 0.457,0.024 0.118,0.003 0.113,0.008 0.23,0.016 0.461,0.027 0.918,0.067 0.227,0.015 0.226,0.02 0.454,0.035 0.902,0.082 0.113,0.012 0.113,0.007 0.223,0.024 0.453,0.047 0.903,0.097 0.226,0.024 0.227,0.027 0.449,0.055 0.902,0.113 1.809,0.25 0.211,0.031 0.207,0.032 0.422,0.062 0.843,0.133 1.684,0.285 3.371,0.637 0.113,0.019 0.34,0.071 0.457,0.093 0.914,0.192 1.828,0.402 3.653,0.856 6.82,1.742 6.688,1.789 7.254,1.871 0.105,0.024 0.106,0.027 0.214,0.051 0.422,0.101 0.848,0.199 1.691,0.391 0.422,0.094 0.422,0.09 0.848,0.183 1.691,0.344 0.117,0.023 0.114,0.024 0.23,0.043 0.457,0.086 0.918,0.172 0.113,0.019 0.117,0.02 0.227,0.039 0.461,0.082 0.918,0.148 0.227,0.039 0.23,0.035 0.457,0.071 0.918,0.129 0.117,0.015 0.113,0.016 0.231,0.031 0.457,0.063 0.918,0.109 0.105,0.012 0.11,0.011 0.215,0.024 0.425,0.047 0.11,0.008 0.105,0.011 0.215,0.024 0.426,0.039 0.109,0.008 0.106,0.011 0.215,0.016 0.429,0.035 0.106,0.008 0.109,0.008 0.211,0.015 0.43,0.032 0.105,0.004 0.11,0.007 0.214,0.012 0.106,0.008 0.105,0.004 0.215,0.012 0.11,0.007 0.105,0.004 0.215,0.008 0.105,0.008 0.11,0.004 0.215,0.008 0.211,0.007 h 0.109 l 0.105,0.004 0.11,0.004 0.105,0.004 h 0.106 l 0.109,0.004 h 0.106 l 0.109,0.004 h 0.105 l 0.11,0.004 h 0.211 l 0.109,0.004 h 0.84 l 0.105,-0.004 h 0.211 l 0.106,-0.004 h 0.105 l 0.102,-0.004 h 0.105 l 0.106,-0.004 h 0.105 l 0.422,-0.016 0.102,-0.003 0.527,-0.02 0.211,-0.012 0.418,-0.023 0.105,-0.008 0.106,-0.004 0.211,-0.015 0.418,-0.032 0.211,-0.015 0.211,-0.02 0.418,-0.035 0.211,-0.023 0.21,-0.02 0.418,-0.047 0.84,-0.105 0.227,-0.032 0.23,-0.031 0.453,-0.066 0.227,-0.039 0.23,-0.035 0.454,-0.079 0.117,-0.019 0.113,-0.024 0.227,-0.039 0.457,-0.089 0.91,-0.196 0.113,-0.023 0.113,-0.028 0.227,-0.05 0.457,-0.114 0.91,-0.234 0.227,-0.062 0.23,-0.067 0.453,-0.133 0.914,-0.285 0.106,-0.031 0.105,-0.035 0.211,-0.075 0.426,-0.144 0.852,-0.309 0.21,-0.078 0.215,-0.082 0.422,-0.168 0.852,-0.355 0.105,-0.043 0.106,-0.047 0.215,-0.094 0.425,-0.191 0.848,-0.399 1.703,-0.871 0.113,-0.062 0.118,-0.067 0.23,-0.125 0.457,-0.261 0.922,-0.547 1.844,-1.184 0.113,-0.078 0.117,-0.078 0.231,-0.16 0.461,-0.324 0.921,-0.672 1.84,-1.45 0.227,-0.187 0.226,-0.191 0.454,-0.387 0.902,-0.797 1.812,-1.703 0.45,-0.449 0.453,-0.457 0.906,-0.946 1.809,-2.004 0.21,-0.242 0.211,-0.25 0.422,-0.496 0.844,-1.027 1.688,-2.157 0.421,-0.562 0.422,-0.57 0.844,-1.176 1.688,-2.457 0.113,-0.176 0.113,-0.172 0.231,-0.347 0.457,-0.708 0.914,-1.445 1.832,-3.043 3.656,-6.687 0.109,-0.207 0.106,-0.211 0.215,-0.418 0.425,-0.848 0.856,-1.726 1.707,-3.606 3.418,-7.801 0.101,-0.254 0.317,-0.761 0.418,-1.024 0.836,-2.09 1.676,-4.336 3.347,-9.308002 0.113,-0.332 0.118,-0.332 0.226,-0.664 0.453,-1.348 0.907,-2.746 1.82,-5.691 3.633,-12.227 0.105,-0.371 0.106,-0.375 0.211,-0.754 0.425,-1.516 0.848,-3.086 1.695,-6.363 3.391,-13.535 0.117,-0.492 0.117,-0.496 0.239,-0.992 0.472,-1.997 0.946,-4.066 1.894,-8.402 0.117,-0.535 0.118,-0.539 0.238,-1.083 0.472,-2.179 0.946,-4.434 0.121,-0.562 0.117,-0.559 0.238,-1.129 0.473,-2.277 0.117,-0.57 0.117,-0.575 0.239,-1.152 0.117,-0.578 0.117,-0.582 0.121,-0.582 0.117,-0.582"
         style="fill:none;stroke:#002147;stroke-width:5.5446;stroke-linecap:square;stroke-linejoin:miter;stroke-miterlimit:3.85;stroke-dasharray:none;stroke-opacity:1"
         id="path1021" />
    </g>
    <path
       style="fill:none;stroke:#bd1135;stroke-width:1;stroke-linecap:butt;stroke-linejoin:miter;stroke-miterlimit:3.85;stroke-dasharray:none;stroke-opacity:1"
       d="M 43.10012,69.65329 105.38915,55.437867"
       id="path3102"
       sodipodi:nodetypes="cc"
       inkscape:export-filename="/home/cotton/Documents/ConfirmationThesis/figures/fdens_scheme.png"
       inkscape:export-xdpi="1036.5699"
       inkscape:export-ydpi="1036.5699" />
    <path
       style="fill:none;stroke:#000000;stroke-width:1;stroke-linecap:butt;stroke-linejoin:miter;stroke-miterlimit:3.85;stroke-dasharray:none;stroke-opacity:1;marker-start:url(#Arrow2Mstart);marker-end:url(#Arrow2Mend)"
       d="M 41.188807,27.743003 V 69.61086 h 68.676153"
       id="path5401"
       inkscape:export-filename="/home/cotton/Documents/ConfirmationThesis/figures/fdens_scheme.png"
       inkscape:export-xdpi="1036.5699"
       inkscape:export-ydpi="1036.5699" />
    <path
       style="fill:none;stroke:#000000;stroke-width:0.339977;stroke-linecap:butt;stroke-linejoin:miter;stroke-miterlimit:4;stroke-dasharray:none;stroke-opacity:1;marker-start:url(#Arrow2Mstart);marker-end:url(#Arrow2Mend)"
       d="m 135.09907,27.531902 v 41.867857 h 68.67615"
       id="path5483"
       inkscape:export-filename="/home/cotton/Documents/ConfirmationThesis/figures/fdens_scheme.png"
       inkscape:export-xdpi="1036.5699"
       inkscape:export-ydpi="1036.5699" />
    <path
       style="fill:none;stroke:#000000;stroke-width:0.339977;stroke-linecap:butt;stroke-linejoin:miter;stroke-miterlimit:4;stroke-dasharray:none;stroke-opacity:1;marker-start:url(#Arrow2Mstart);marker-end:url(#Arrow2Mend)"
       d="m 135.09907,27.531902 v 41.867857 h 68.67615"
       id="path5491"
       inkscape:export-filename="/home/cotton/Documents/ConfirmationThesis/figures/fdens_scheme.png"
       inkscape:export-xdpi="1036.5699"
       inkscape:export-ydpi="1036.5699" />
    <path
       d="m 135.34263,57.565265 0.0199,0.01221 0.0209,0.01241 0.0408,0.02462 0.0808,0.04924 0.16231,0.09849 0.32481,0.194613 0.64944,0.383909 1.4072,0.80485 1.31424,0.716407 1.28882,0.666374 1.39814,0.683315 1.30419,0.597827 1.41331,0.603144 1.38811,0.545628 1.29512,0.466246 1.40346,0.456987 1.31109,0.380166 1.28488,0.326983 0.0432,0.01083 0.0439,0.01004 0.0869,0.01989 0.17472,0.03998 0.34846,0.07781 0.69631,0.144582 0.0209,0.004 0.0199,0.0045 0.12252,0.02305 0.16231,0.03151 0.32541,0.05929 0.0201,0.004 0.0207,0.0037 0.04,0.0069 0.0815,0.01399 0.16251,0.02837 0.32541,0.05318 0.0223,0.0037 0.0217,0.0031 0.0437,0.0069 0.0884,0.01379 0.1763,0.02699 0.35239,0.05082 0.0223,0.0031 0.0217,0.003 0.0445,0.0061 0.0879,0.01162 0.1761,0.02305 0.35239,0.04393 0.0223,0.0023 0.0217,0.0022 0.0432,0.0055 0.0861,0.0093 0.17314,0.01911 0.34629,0.03546 0.0215,0.0023 0.0217,0.0014 0.0429,0.0047 0.0871,0.0077 0.17314,0.01537 0.34531,0.02777 0.0209,0.0014 0.0601,0.0047 0.0808,0.0053 0.16152,0.01162 0.0201,7.82e-4 0.0199,0.0016 0.0408,0.0022 0.0808,0.0055 0.16093,0.0093 0.0199,6.14e-4 0.0209,0.0016 0.04,0.0016 0.0808,0.0045 0.04,0.0016 0.0408,0.0023 0.0808,0.004 0.0402,0.0014 0.0408,0.0016 0.08,0.004 0.16152,0.0053 0.0223,7.82e-4 0.0217,7.82e-4 0.13158,0.0045 h 0.0215 l 0.0217,7.82e-4 0.0437,0.0016 0.0878,0.0016 0.0215,7.82e-4 0.0223,7.81e-4 0.0439,7.82e-4 0.0214,6.14e-4 h 0.0223 l 0.0432,7.82e-4 0.0224,7.82e-4 h 0.0215 l 0.0439,7.81e-4 h 0.0223 l 0.0215,7.82e-4 0.0439,7.82e-4 h 0.0654 l 0.0223,7.81e-4 h 0.0654 l 0.0217,7.82e-4 h 0.41621 l 0.0214,-7.82e-4 h 0.0439 l 0.0439,-7.81e-4 h 0.0408 l 0.0408,-7.82e-4 h 0.0199 l 0.0209,-7.82e-4 0.0408,-7.81e-4 h 0.0408 l 0.0408,-7.82e-4 0.0816,-0.0022 h 0.0207 l 0.0201,-7.81e-4 0.0415,-7.82e-4 0.0815,-0.0023 h 0.0199 l 0.0209,-7.82e-4 0.0408,-0.0016 0.0816,-0.0022 0.0207,-7.82e-4 0.0201,-7.81e-4 0.0408,-7.82e-4 0.0816,-0.0031 0.0209,-7.82e-4 0.0199,-6.14e-4 0.0408,-0.0016 0.0823,-0.004 0.0201,-7.81e-4 0.0206,-7.82e-4 0.0408,-0.0014 0.0815,-0.004 0.1631,-0.0085 0.0225,-0.0016 0.0223,-7.82e-4 0.0439,-0.003 0.0884,-0.0047 0.17689,-0.01142 0.0447,-0.0031 0.0437,-0.0023 0.0886,-0.0069 0.17688,-0.013 0.0447,-0.0031 0.0437,-0.0037 0.0886,-0.0071 0.17767,-0.01537 0.35397,-0.03388 0.0432,-0.0045 0.0437,-0.0045 0.0863,-0.0093 0.17373,-0.0193 0.34786,-0.04156 0.0217,-0.0023 0.0223,-0.003 0.0432,-0.0055 0.2608,-0.03447 0.34687,-0.05004 0.0209,-0.0031 0.0199,-0.0031 0.041,-0.0061 0.0808,-0.01221 0.16231,-0.0262 0.32383,-0.05397 0.0209,-0.0037 0.0199,-0.0031 0.0408,-0.0077 0.081,-0.01379 0.16231,-0.02915 0.32383,-0.06244 0.0224,-0.0037 0.0214,-0.0047 0.0439,-0.0085 0.0884,-0.01773 0.17551,-0.03605 0.3516,-0.07544 0.70321,-0.164673 0.0201,-0.0045 0.0207,-0.0055 0.0408,-0.01004 0.0823,-0.02068 0.16388,-0.04235 0.32857,-0.08687 0.65632,-0.185552 1.28725,-0.411683 1.39657,-0.517657 1.30261,-0.551734 1.41272,-0.674844 1.38652,-0.741029 1.29277,-0.762499 1.40267,-0.906294 1.30951,-0.92343 1.28351,-0.977205 1.39263,-1.143257 1.29887,-1.145817 1.40878,-1.330386 1.31502,-1.325658 1.28961,-1.380417 1.39893,-1.587441 1.30498,-1.568925 1.41489,-1.796631 1.38888,-1.862816 1.29572,-1.827359 1.40426,-2.080476 1.31187,-2.037534 1.28586,-2.086779 1.395,-2.367668 1.30103,-2.306014 0.0231,-0.04078 0.0231,-0.04156 0.13631,-0.246813 0.18161,-0.331709 0.36303,-0.667951 0.0224,-0.04156 0.0231,-0.04215 0.0453,-0.08391 0.27242,-0.507808 0.0223,-0.04235 0.0232,-0.04235 0.0453,-0.08549 0.0908,-0.169991 0.0223,-0.04314 0.0231,-0.04216 0.0455,-0.08628 0.0223,-0.04235 0.0231,-0.04314 0.0225,-0.04294 0.0231,-0.04235"
       style="fill:none;stroke:#002147;stroke-width:1;stroke-linecap:square;stroke-linejoin:miter;stroke-miterlimit:3.85;stroke-dasharray:none;stroke-opacity:1"
       id="path5535"
       inkscape:export-filename="/home/cotton/Documents/ConfirmationThesis/figures/fdens_scheme.png"
       inkscape:export-xdpi="1036.5699"
       inkscape:export-ydpi="1036.5699" />
    <path
       style="fill:none;stroke:#000000;stroke-width:1;stroke-linecap:butt;stroke-linejoin:miter;stroke-miterlimit:3.85;stroke-dasharray:none;stroke-opacity:1;marker-start:url(#Arrow2Mstart);marker-end:url(#Arrow2Mend)"
       d="m 135.09907,27.531902 v 41.867857 h 68.67615"
       id="path6027"
       inkscape:export-filename="/home/cotton/Documents/ConfirmationThesis/figures/fdens_scheme.png"
       inkscape:export-xdpi="1036.5699"
       inkscape:export-ydpi="1036.5699" />
    <g
       inkscape:label=""
       transform="matrix(0.46616169,0,0,0.45754851,159.75482,37.282786)"
       id="g9973"
       inkscape:export-filename="/home/cotton/Documents/ConfirmationThesis/figures/fdens_scheme.png"
       inkscape:export-xdpi="1036.5699"
       inkscape:export-ydpi="1036.5699">
      <g
         id="g897">
        <g
           style="fill:#000000;fill-opacity:1"
           id="g8326">
          <g
             id="use8988"
             transform="translate(91.925003,81.962997)">
            <path
               style="stroke:none"
               d="m 4.359375,-6.671875 c 0,-0.03125 0.03125,-0.140625 0.03125,-0.140625 0,-0.015625 0,-0.109375 -0.125,-0.109375 -0.09375,0 -0.109375,0.03125 -0.15625,0.203125 L 3.53125,-4.421875 c -1.578125,0.0625 -3.046875,1.375 -3.046875,2.734375 0,0.953125 0.703125,1.734375 1.921875,1.8125 C 2.328125,0.421875 2.25,0.75 2.171875,1.0625 c -0.125,0.46875 -0.21875,0.84375 -0.21875,0.875 0,0.09375 0.078125,0.109375 0.125,0.109375 C 2.125,2.046875 2.140625,2.03125 2.171875,2 2.1875,1.984375 2.25,1.75 2.28125,1.609375 L 2.65625,0.125 c 1.609375,-0.0625 3.0625,-1.40625 3.0625,-2.734375 0,-0.796875 -0.53125,-1.703125 -1.921875,-1.8125 z m -1.90625,6.578125 c -0.59375,-0.03125 -1.3125,-0.390625 -1.3125,-1.375 0,-1.203125 0.859375,-2.59375 2.34375,-2.734375 z m 1.28125,-4.109375 c 0.765625,0.046875 1.328125,0.5 1.328125,1.375 0,1.1875 -0.859375,2.609375 -2.34375,2.734375 z m 0,0"
               id="path69007" />
          </g>
        </g>
      </g>
    </g>
    <g
       inkscape:label=""
       transform="matrix(0.46616169,0,0,0.45754851,65.176624,37.762687)"
       id="g11103"
       inkscape:export-filename="/home/cotton/Documents/ConfirmationThesis/figures/fdens_scheme.png"
       inkscape:export-xdpi="1036.5699"
       inkscape:export-ydpi="1036.5699">
      <g
         id="g11101">
        <g
           style="fill:#000000;fill-opacity:1"
           id="g11099">
          <g
             id="use11097"
             transform="translate(91.925003,81.962997)">
            <path
               style="stroke:none"
               d="m 4.359375,-6.671875 c 0,-0.03125 0.03125,-0.140625 0.03125,-0.140625 0,-0.015625 0,-0.109375 -0.125,-0.109375 -0.09375,0 -0.109375,0.03125 -0.15625,0.203125 L 3.53125,-4.421875 c -1.578125,0.0625 -3.046875,1.375 -3.046875,2.734375 0,0.953125 0.703125,1.734375 1.921875,1.8125 C 2.328125,0.421875 2.25,0.75 2.171875,1.0625 c -0.125,0.46875 -0.21875,0.84375 -0.21875,0.875 0,0.09375 0.078125,0.109375 0.125,0.109375 C 2.125,2.046875 2.140625,2.03125 2.171875,2 2.1875,1.984375 2.25,1.75 2.28125,1.609375 L 2.65625,0.125 c 1.609375,-0.0625 3.0625,-1.40625 3.0625,-2.734375 0,-0.796875 -0.53125,-1.703125 -1.921875,-1.8125 z m -1.90625,6.578125 c -0.59375,-0.03125 -1.3125,-0.390625 -1.3125,-1.375 0,-1.203125 0.859375,-2.59375 2.34375,-2.734375 z m 1.28125,-4.109375 c 0.765625,0.046875 1.328125,0.5 1.328125,1.375 0,1.1875 -0.859375,2.609375 -2.34375,2.734375 z m 0,0"
               id="path69011" />
          </g>
        </g>
      </g>
    </g>
    <g
       inkscape:label=""
       transform="matrix(0.38425198,0,0,0.37715223,-10.834175,-3.401598)"
       id="g12065"
       inkscape:export-filename="/home/cotton/Documents/ConfirmationThesis/figures/fdens_scheme.png"
       inkscape:export-xdpi="1036.5699"
       inkscape:export-ydpi="1036.5699">
      <g
         id="g174">
        <g
           style="fill:#000000;fill-opacity:1"
           id="g8616">
          <g
             id="use4909"
             transform="translate(91.925003,81.962997)">
            <path
               style="stroke:none"
               d="m 3.65625,-3.984375 h 0.859375 c 0.203125,0 0.296875,0 0.296875,-0.203125 0,-0.109375 -0.09375,-0.109375 -0.265625,-0.109375 H 3.71875 L 3.921875,-5.4375 c 0.046875,-0.203125 0.1875,-0.90625 0.25,-1.03125 0.078125,-0.1875 0.25,-0.34375 0.46875,-0.34375 0.03125,0 0.296875,0 0.484375,0.1875 -0.4375,0.03125 -0.546875,0.390625 -0.546875,0.53125 0,0.234375 0.1875,0.359375 0.375,0.359375 C 5.21875,-5.734375 5.5,-5.96875 5.5,-6.34375 c 0,-0.453125 -0.453125,-0.6875 -0.859375,-0.6875 -0.34375,0 -0.96875,0.1875 -1.265625,1.171875 -0.0625,0.203125 -0.09375,0.3125 -0.328125,1.5625 h -0.6875 c -0.203125,0 -0.3125,0 -0.3125,0.1875 0,0.125 0.09375,0.125 0.28125,0.125 h 0.65625 L 2.25,-0.046875 c -0.1875,0.96875 -0.359375,1.875 -0.875,1.875 -0.046875,0 -0.28125,0 -0.484375,-0.1875 C 1.359375,1.609375 1.453125,1.25 1.453125,1.109375 1.453125,0.875 1.265625,0.75 1.078125,0.75 0.8125,0.75 0.53125,0.984375 0.53125,1.359375 c 0,0.4375 0.4375,0.6875 0.84375,0.6875 0.546875,0 0.953125,-0.59375 1.125,-0.96875 0.328125,-0.625 0.546875,-1.828125 0.5625,-1.90625 z m 0,0"
               id="path68995" />
          </g>
        </g>
        <g
           style="fill:#000000;fill-opacity:1"
           id="g8361">
          <g
             id="use2769"
             transform="translate(97.875,81.962997)">
            <path
               style="stroke:none"
               d="m 3.296875,2.390625 c 0,-0.03125 0,-0.046875 -0.171875,-0.21875 C 1.890625,0.921875 1.5625,-0.96875 1.5625,-2.5 c 0,-1.734375 0.375,-3.46875 1.609375,-4.703125 0.125,-0.125 0.125,-0.140625 0.125,-0.171875 0,-0.078125 -0.03125,-0.109375 -0.09375,-0.109375 -0.109375,0 -1,0.6875 -1.59375,1.953125 -0.5,1.09375 -0.625,2.203125 -0.625,3.03125 0,0.78125 0.109375,1.984375 0.65625,3.125 C 2.25,1.84375 3.09375,2.5 3.203125,2.5 c 0.0625,0 0.09375,-0.03125 0.09375,-0.109375 z m 0,0"
               id="path68971" />
          </g>
        </g>
        <g
           style="fill:#000000;fill-opacity:1"
           id="g8773">
          <g
             id="use633"
             transform="translate(101.75,81.962997)">
            <path
               style="stroke:none"
               d="m 4.359375,-6.671875 c 0,-0.03125 0.03125,-0.140625 0.03125,-0.140625 0,-0.015625 0,-0.109375 -0.125,-0.109375 -0.09375,0 -0.109375,0.03125 -0.15625,0.203125 L 3.53125,-4.421875 c -1.578125,0.0625 -3.046875,1.375 -3.046875,2.734375 0,0.953125 0.703125,1.734375 1.921875,1.8125 C 2.328125,0.421875 2.25,0.75 2.171875,1.0625 c -0.125,0.46875 -0.21875,0.84375 -0.21875,0.875 0,0.09375 0.078125,0.109375 0.125,0.109375 C 2.125,2.046875 2.140625,2.03125 2.171875,2 2.1875,1.984375 2.25,1.75 2.28125,1.609375 L 2.65625,0.125 c 1.609375,-0.0625 3.0625,-1.40625 3.0625,-2.734375 0,-0.796875 -0.53125,-1.703125 -1.921875,-1.8125 z m -1.90625,6.578125 c -0.59375,-0.03125 -1.3125,-0.390625 -1.3125,-1.375 0,-1.203125 0.859375,-2.59375 2.34375,-2.734375 z m 1.28125,-4.109375 c 0.765625,0.046875 1.328125,0.5 1.328125,1.375 0,1.1875 -0.859375,2.609375 -2.34375,2.734375 z m 0,0"
               id="path69003" />
          </g>
          <g
             id="use6816"
             transform="translate(107.68571,81.962997)">
            <path
               style="stroke:none"
               d="m 2.03125,-0.015625 c 0,-0.65625 -0.25,-1.046875 -0.640625,-1.046875 -0.328125,0 -0.53125,0.25 -0.53125,0.53125 C 0.859375,-0.265625 1.0625,0 1.390625,0 1.5,0 1.640625,-0.046875 1.734375,-0.125 1.765625,-0.15625 1.78125,-0.15625 1.78125,-0.15625 c 0.015625,0 0.015625,0 0.015625,0.140625 0,0.75 -0.34375,1.34375 -0.671875,1.671875 -0.109375,0.109375 -0.109375,0.125 -0.109375,0.15625 0,0.078125 0.046875,0.109375 0.09375,0.109375 0.109375,0 0.921875,-0.765625 0.921875,-1.9375 z m 0,0"
               id="path68999" />
          </g>
        </g>
        <g
           style="fill:#000000;fill-opacity:1"
           id="g5546">
          <g
             id="use8148"
             transform="translate(112.11708,81.962997)">
            <path
               style="stroke:none"
               d="m 4.25,-6.046875 c 0.078125,-0.28125 0.109375,-0.34375 0.234375,-0.375 0.09375,-0.015625 0.421875,-0.015625 0.625,-0.015625 1.015625,0 1.453125,0.03125 1.453125,0.8125 0,0.15625 -0.03125,0.546875 -0.078125,0.796875 0,0.046875 -0.03125,0.15625 -0.03125,0.1875 0,0.0625 0.03125,0.140625 0.125,0.140625 0.109375,0 0.125,-0.078125 0.15625,-0.234375 L 7,-6.46875 C 7.015625,-6.515625 7.015625,-6.609375 7.015625,-6.640625 7.015625,-6.75 6.921875,-6.75 6.75,-6.75 H 1.21875 c -0.234375,0 -0.25,0.015625 -0.328125,0.203125 l -0.59375,1.75 c 0,0.015625 -0.0625,0.15625 -0.0625,0.1875 0,0.046875 0.0625,0.109375 0.125,0.109375 0.09375,0 0.109375,-0.0625 0.171875,-0.21875 C 1.0625,-6.265625 1.328125,-6.4375 2.796875,-6.4375 H 3.1875 c 0.28125,0 0.28125,0.03125 0.28125,0.125 0,0.046875 -0.03125,0.171875 -0.046875,0.203125 L 2.09375,-0.78125 C 2,-0.421875 1.96875,-0.3125 0.90625,-0.3125 c -0.359375,0 -0.421875,0 -0.421875,0.1875 C 0.484375,0 0.59375,0 0.65625,0 c 0.265625,0 0.546875,-0.015625 0.8125,-0.015625 0.28125,0 0.578125,-0.015625 0.859375,-0.015625 0.28125,0 0.546875,0.015625 0.828125,0.015625 C 3.4375,-0.015625 3.734375,0 4.015625,0 c 0.09375,0 0.21875,0 0.21875,-0.203125 0,-0.109375 -0.078125,-0.109375 -0.34375,-0.109375 -0.234375,0 -0.375,0 -0.625,-0.015625 -0.296875,-0.03125 -0.375,-0.0625 -0.375,-0.21875 0,-0.015625 0,-0.0625 0.046875,-0.203125 z m 0,0"
               id="path68975" />
          </g>
        </g>
        <g
           style="fill:#000000;fill-opacity:1"
           id="g2405">
          <g
             id="use3671"
             transform="translate(117.935,83.457001)">
            <path
               style="stroke:none"
               d="m 2.328125,-4.4375 c 0,-0.1875 0,-0.1875 -0.203125,-0.1875 -0.453125,0.4375 -1.078125,0.4375 -1.359375,0.4375 v 0.25 c 0.15625,0 0.625,0 1,-0.1875 v 3.546875 c 0,0.234375 0,0.328125 -0.6875,0.328125 H 0.8125 V 0 c 0.125,0 0.984375,-0.03125 1.234375,-0.03125 0.21875,0 1.09375,0.03125 1.25,0.03125 V -0.25 H 3.03125 c -0.703125,0 -0.703125,-0.09375 -0.703125,-0.328125 z m 0,0"
               id="path68963" />
          </g>
        </g>
        <g
           style="fill:#000000;fill-opacity:1"
           id="g4580">
          <g
             id="use1566"
             transform="translate(122.405,81.962997)">
            <path
               style="stroke:none"
               d="m 2.875,-2.5 c 0,-0.765625 -0.109375,-1.96875 -0.65625,-3.109375 -0.59375,-1.21875 -1.453125,-1.875 -1.546875,-1.875 -0.0625,0 -0.109375,0.046875 -0.109375,0.109375 0,0.03125 0,0.046875 0.1875,0.234375 0.984375,0.984375 1.546875,2.5625 1.546875,4.640625 0,1.71875 -0.359375,3.46875 -1.59375,4.71875 C 0.5625,2.34375 0.5625,2.359375 0.5625,2.390625 0.5625,2.453125 0.609375,2.5 0.671875,2.5 0.765625,2.5 1.671875,1.8125 2.25,0.546875 2.765625,-0.546875 2.875,-1.65625 2.875,-2.5 Z m 0,0"
               id="path68967" />
          </g>
        </g>
      </g>
    </g>
    <g
       inkscape:label=""
       transform="matrix(0.38623745,0,0,0.37910102,83.745374,-3.735169)"
       id="g12682"
       inkscape:export-filename="/home/cotton/Documents/ConfirmationThesis/figures/fdens_scheme.png"
       inkscape:export-xdpi="1036.5699"
       inkscape:export-ydpi="1036.5699">
      <g
         id="g9357">
        <g
           style="fill:#000000;fill-opacity:1"
           id="g9429">
          <g
             id="use7769"
             transform="translate(91.925003,81.962997)">
            <path
               style="stroke:none"
               d="m 3.65625,-3.984375 h 0.859375 c 0.203125,0 0.296875,0 0.296875,-0.203125 0,-0.109375 -0.09375,-0.109375 -0.265625,-0.109375 H 3.71875 L 3.921875,-5.4375 c 0.046875,-0.203125 0.1875,-0.90625 0.25,-1.03125 0.078125,-0.1875 0.25,-0.34375 0.46875,-0.34375 0.03125,0 0.296875,0 0.484375,0.1875 -0.4375,0.03125 -0.546875,0.390625 -0.546875,0.53125 0,0.234375 0.1875,0.359375 0.375,0.359375 C 5.21875,-5.734375 5.5,-5.96875 5.5,-6.34375 c 0,-0.453125 -0.453125,-0.6875 -0.859375,-0.6875 -0.34375,0 -0.96875,0.1875 -1.265625,1.171875 -0.0625,0.203125 -0.09375,0.3125 -0.328125,1.5625 h -0.6875 c -0.203125,0 -0.3125,0 -0.3125,0.1875 0,0.125 0.09375,0.125 0.28125,0.125 h 0.65625 L 2.25,-0.046875 c -0.1875,0.96875 -0.359375,1.875 -0.875,1.875 -0.046875,0 -0.28125,0 -0.484375,-0.1875 C 1.359375,1.609375 1.453125,1.25 1.453125,1.109375 1.453125,0.875 1.265625,0.75 1.078125,0.75 0.8125,0.75 0.53125,0.984375 0.53125,1.359375 c 0,0.4375 0.4375,0.6875 0.84375,0.6875 0.546875,0 0.953125,-0.59375 1.125,-0.96875 0.328125,-0.625 0.546875,-1.828125 0.5625,-1.90625 z m 0,0"
               id="path68951" />
          </g>
        </g>
        <g
           style="fill:#000000;fill-opacity:1"
           id="g9774">
          <g
             id="use6689"
             transform="translate(97.875,81.962997)">
            <path
               style="stroke:none"
               d="m 3.296875,2.390625 c 0,-0.03125 0,-0.046875 -0.171875,-0.21875 C 1.890625,0.921875 1.5625,-0.96875 1.5625,-2.5 c 0,-1.734375 0.375,-3.46875 1.609375,-4.703125 0.125,-0.125 0.125,-0.140625 0.125,-0.171875 0,-0.078125 -0.03125,-0.109375 -0.09375,-0.109375 -0.109375,0 -1,0.6875 -1.59375,1.953125 -0.5,1.09375 -0.625,2.203125 -0.625,3.03125 0,0.78125 0.109375,1.984375 0.65625,3.125 C 2.25,1.84375 3.09375,2.5 3.203125,2.5 c 0.0625,0 0.09375,-0.03125 0.09375,-0.109375 z m 0,0"
               id="path68987" />
          </g>
        </g>
        <g
           style="fill:#000000;fill-opacity:1"
           id="g607">
          <g
             id="use4562"
             transform="translate(101.75,81.962997)">
            <path
               style="stroke:none"
               d="m 4.359375,-6.671875 c 0,-0.03125 0.03125,-0.140625 0.03125,-0.140625 0,-0.015625 0,-0.109375 -0.125,-0.109375 -0.09375,0 -0.109375,0.03125 -0.15625,0.203125 L 3.53125,-4.421875 c -1.578125,0.0625 -3.046875,1.375 -3.046875,2.734375 0,0.953125 0.703125,1.734375 1.921875,1.8125 C 2.328125,0.421875 2.25,0.75 2.171875,1.0625 c -0.125,0.46875 -0.21875,0.84375 -0.21875,0.875 0,0.09375 0.078125,0.109375 0.125,0.109375 C 2.125,2.046875 2.140625,2.03125 2.171875,2 2.1875,1.984375 2.25,1.75 2.28125,1.609375 L 2.65625,0.125 c 1.609375,-0.0625 3.0625,-1.40625 3.0625,-2.734375 0,-0.796875 -0.53125,-1.703125 -1.921875,-1.8125 z m -1.90625,6.578125 c -0.59375,-0.03125 -1.3125,-0.390625 -1.3125,-1.375 0,-1.203125 0.859375,-2.59375 2.34375,-2.734375 z m 1.28125,-4.109375 c 0.765625,0.046875 1.328125,0.5 1.328125,1.375 0,1.1875 -0.859375,2.609375 -2.34375,2.734375 z m 0,0"
               id="path68959" />
          </g>
          <g
             id="use4891"
             transform="translate(107.68571,81.962997)">
            <path
               style="stroke:none"
               d="m 2.03125,-0.015625 c 0,-0.65625 -0.25,-1.046875 -0.640625,-1.046875 -0.328125,0 -0.53125,0.25 -0.53125,0.53125 C 0.859375,-0.265625 1.0625,0 1.390625,0 1.5,0 1.640625,-0.046875 1.734375,-0.125 1.765625,-0.15625 1.78125,-0.15625 1.78125,-0.15625 c 0.015625,0 0.015625,0 0.015625,0.140625 0,0.75 -0.34375,1.34375 -0.671875,1.671875 -0.109375,0.109375 -0.109375,0.125 -0.109375,0.15625 0,0.078125 0.046875,0.109375 0.09375,0.109375 0.109375,0 0.921875,-0.765625 0.921875,-1.9375 z m 0,0"
               id="path68955" />
          </g>
        </g>
        <g
           style="fill:#000000;fill-opacity:1"
           id="g5947">
          <g
             id="use2475"
             transform="translate(112.11708,81.962997)">
            <path
               style="stroke:none"
               d="m 4.25,-6.046875 c 0.078125,-0.28125 0.109375,-0.34375 0.234375,-0.375 0.09375,-0.015625 0.421875,-0.015625 0.625,-0.015625 1.015625,0 1.453125,0.03125 1.453125,0.8125 0,0.15625 -0.03125,0.546875 -0.078125,0.796875 0,0.046875 -0.03125,0.15625 -0.03125,0.1875 0,0.0625 0.03125,0.140625 0.125,0.140625 0.109375,0 0.125,-0.078125 0.15625,-0.234375 L 7,-6.46875 C 7.015625,-6.515625 7.015625,-6.609375 7.015625,-6.640625 7.015625,-6.75 6.921875,-6.75 6.75,-6.75 H 1.21875 c -0.234375,0 -0.25,0.015625 -0.328125,0.203125 l -0.59375,1.75 c 0,0.015625 -0.0625,0.15625 -0.0625,0.1875 0,0.046875 0.0625,0.109375 0.125,0.109375 0.09375,0 0.109375,-0.0625 0.171875,-0.21875 C 1.0625,-6.265625 1.328125,-6.4375 2.796875,-6.4375 H 3.1875 c 0.28125,0 0.28125,0.03125 0.28125,0.125 0,0.046875 -0.03125,0.171875 -0.046875,0.203125 L 2.09375,-0.78125 C 2,-0.421875 1.96875,-0.3125 0.90625,-0.3125 c -0.359375,0 -0.421875,0 -0.421875,0.1875 C 0.484375,0 0.59375,0 0.65625,0 c 0.265625,0 0.546875,-0.015625 0.8125,-0.015625 0.28125,0 0.578125,-0.015625 0.859375,-0.015625 0.28125,0 0.546875,0.015625 0.828125,0.015625 C 3.4375,-0.015625 3.734375,0 4.015625,0 c 0.09375,0 0.21875,0 0.21875,-0.203125 0,-0.109375 -0.078125,-0.109375 -0.34375,-0.109375 -0.234375,0 -0.375,0 -0.625,-0.015625 -0.296875,-0.03125 -0.375,-0.0625 -0.375,-0.21875 0,-0.015625 0,-0.0625 0.046875,-0.203125 z m 0,0"
               id="path68991" />
          </g>
        </g>
        <g
           style="fill:#000000;fill-opacity:1"
           id="g9154">
          <g
             id="use3648"
             transform="translate(117.935,83.457001)">
            <path
               style="stroke:none"
               d="M 3.515625,-1.265625 H 3.28125 c -0.015625,0.15625 -0.09375,0.5625 -0.1875,0.625 C 3.046875,-0.59375 2.515625,-0.59375 2.40625,-0.59375 H 1.125 c 0.734375,-0.640625 0.984375,-0.84375 1.390625,-1.171875 0.515625,-0.40625 1,-0.84375 1,-1.5 0,-0.84375 -0.734375,-1.359375 -1.625,-1.359375 -0.859375,0 -1.453125,0.609375 -1.453125,1.25 0,0.34375 0.296875,0.390625 0.375,0.390625 0.15625,0 0.359375,-0.125 0.359375,-0.375 0,-0.125 -0.046875,-0.375 -0.40625,-0.375 C 0.984375,-4.21875 1.453125,-4.375 1.78125,-4.375 c 0.703125,0 1.0625,0.546875 1.0625,1.109375 0,0.609375 -0.4375,1.078125 -0.65625,1.328125 L 0.515625,-0.265625 C 0.4375,-0.203125 0.4375,-0.1875 0.4375,0 h 2.875 z m 0,0"
               id="path68979" />
          </g>
        </g>
        <g
           style="fill:#000000;fill-opacity:1"
           id="g2865">
          <g
             id="use4833"
             transform="translate(122.405,81.962997)">
            <path
               style="stroke:none"
               d="m 2.875,-2.5 c 0,-0.765625 -0.109375,-1.96875 -0.65625,-3.109375 -0.59375,-1.21875 -1.453125,-1.875 -1.546875,-1.875 -0.0625,0 -0.109375,0.046875 -0.109375,0.109375 0,0.03125 0,0.046875 0.1875,0.234375 0.984375,0.984375 1.546875,2.5625 1.546875,4.640625 0,1.71875 -0.359375,3.46875 -1.59375,4.71875 C 0.5625,2.34375 0.5625,2.359375 0.5625,2.390625 0.5625,2.453125 0.609375,2.5 0.671875,2.5 0.765625,2.5 1.671875,1.8125 2.25,0.546875 2.765625,-0.546875 2.875,-1.65625 2.875,-2.5 Z m 0,0"
               id="path68983" />
          </g>
        </g>
      </g>
    </g>
  </g>
</svg>
